<svg width="256" height="256" viewBox="0 0 256 256" fill="none" xmlns="http://www.w3.org/2000/svg">
  <path
    d="M19.042 173.071C16.8207 173.071 15.1943 172.754 14.163 172.119C13.1317 171.484 12.497 170.612 12.259 169.501C12.021 168.311 11.902 167.081 11.902 165.812V97.149C11.902 95.8797 12.021 94.7293 12.259 93.698C12.5763 92.5873 13.2507 91.7147 14.282 91.08C15.3133 90.366 16.9397 90.009 19.161 90.009H44.389C47.8797 90.009 51.291 90.604 54.623 91.794C57.955 92.984 60.93 94.769 63.548 97.149C66.2453 99.529 68.3477 102.464 69.855 105.955C71.4417 109.446 72.235 113.531 72.235 118.212C72.235 122.813 71.4417 126.859 69.855 130.35C68.3477 133.761 66.2453 136.657 63.548 139.037C60.8507 141.417 57.836 143.202 54.504 144.392C51.2513 145.582 47.84 146.177 44.27 146.177H26.301V165.931C26.301 167.2 26.1423 168.39 25.825 169.501C25.587 170.612 24.9523 171.484 23.921 172.119C22.969 172.754 21.3427 173.071 19.042 173.071ZM26.301 131.659H44.389C46.8483 131.659 49.0697 131.183 51.053 130.231C53.1157 129.2 54.7817 127.692 56.051 125.709C57.3203 123.646 57.955 121.068 57.955 117.974C57.955 115.197 57.36 112.817 56.17 110.834C55.0593 108.771 53.4727 107.185 51.41 106.074C49.4267 104.963 47.0467 104.408 44.27 104.408H26.301V131.659Z"
    fill="black" />
  <path
    d="M170.068 173.071C168.005 173.071 166.458 172.754 165.427 172.119C164.395 171.484 163.721 170.612 163.404 169.501C163.166 168.39 163.047 167.161 163.047 165.812V97.149C163.047 95.8797 163.166 94.7293 163.404 93.698C163.721 92.5873 164.395 91.7147 165.427 91.08C166.458 90.366 168.084 90.009 170.306 90.009C171.972 90.009 173.201 90.128 173.995 90.366C174.867 90.5247 175.542 90.8023 176.018 91.199C176.494 91.5163 176.97 91.9527 177.446 92.508L206.482 133.087H203.745L232.9 92.389C233.455 91.7543 234.01 91.2783 234.566 90.961C235.121 90.6437 235.835 90.4057 236.708 90.247C237.58 90.0883 238.731 90.009 240.159 90.009C242.301 90.009 243.887 90.366 244.919 91.08C245.95 91.7147 246.585 92.5873 246.823 93.698C247.14 94.8087 247.299 96.0383 247.299 97.387V166.05C247.299 167.24 247.14 168.39 246.823 169.501C246.585 170.612 245.95 171.484 244.919 172.119C243.887 172.754 242.261 173.071 240.04 173.071C237.898 173.071 236.311 172.714 235.28 172C234.248 171.365 233.574 170.493 233.257 169.382C233.019 168.271 232.9 167.081 232.9 165.812V114.761L211.242 146.058C211.004 146.375 210.647 146.812 210.171 147.367C209.695 147.843 209.06 148.279 208.267 148.676C207.473 149.073 206.402 149.271 205.054 149.271C203.784 149.271 202.753 149.073 201.96 148.676C201.166 148.279 200.532 147.843 200.056 147.367C199.659 146.891 199.262 146.415 198.866 145.939L177.327 114.761V166.05C177.327 167.24 177.168 168.39 176.851 169.501C176.613 170.612 175.978 171.484 174.947 172.119C173.915 172.754 172.289 173.071 170.068 173.071Z"
    fill="black" />
  <path
    d="M93 124.5C91.067 124.5 89.5 126.067 89.5 128C89.5 129.933 91.067 131.5 93 131.5V128V124.5ZM142.475 130.475C143.842 129.108 143.842 126.892 142.475 125.525L120.201 103.251C118.834 101.884 116.618 101.884 115.251 103.251C113.884 104.618 113.884 106.834 115.251 108.201L135.05 128L115.251 147.799C113.884 149.166 113.884 151.382 115.251 152.749C116.618 154.116 118.834 154.116 120.201 152.749L142.475 130.475ZM93 128V131.5H140V128V124.5H93V128Z"
    fill="black" />
</svg>